<svg id="icon-library" viewbox="0 0 0 0" xmlns="http://www.w3.org/2000/svg" xmlns:xlink="http://www.w3.org/1999/xlink">
	<defs>
		<symbol id="scroll-plus" viewbox="0 0 24 24">
			<title>scroll-plus</title>
			<path fill-rule="evenodd" d="M16,1 C17.6568542,1 19,2.34314575 19,4 L19,17 L13,17 C10.8578046,17 9.10892112,18.6839685 9.00489531,20.8003597 L9,21 L9,22 C9,22.5522847 8.55228475,23 8,23 C6.34314575,23 5,21.6568542 5,20 L5,3 C5,2.27101288 4.80499062,1.58757264 4.46429254,0.998999962 L16,1 Z M21,19 C22.1045695,19 23,19.8954305 23,21 C23,22.1045695 22.1045695,23 21,23 L10.8289758,23.0009007 C10.9397302,22.6878673 11,22.350972 11,22 L11,21 C11,19.8954305 11.8954305,19 13,19 L21,19 Z M13,6 L11,6 L11,8.99999996 L8,9 L8,11 L11,11 L11,14 L13,14 L13,11 L16,11 L16,9 L13,8.99999996 L13,6 Z M1.50102216,1.06327212 C2.36311707,1.28564881 3,2.06844842 3,3 L3,4.99999996 L2,5 C0.8954305,5 0,4.1045695 0,3 C0,2.09626132 0.599420418,1.33252478 1.42237357,1.08467806 Z" />
		</symbol>
		<symbol id="scroll-arrows-swap-h" viewbox="0 0 24 24">
			<title>scroll-arrows-swap-h</title>
			<path fill-rule="evenodd" d="M16,1 C17.6568542,1 19,2.34314575 19,4 L19,17 L13,17 C10.8578046,17 9.10892112,18.6839685 9.00489531,20.8003597 L9,21 L9,22 C9,22.5522847 8.55228475,23 8,23 C6.34314575,23 5,21.6568542 5,20 L5,3 C5,2.27101288 4.80499062,1.58757264 4.46429254,0.998999962 L16,1 Z M21,19 C22.1045695,19 23,19.8954305 23,21 C23,22.1045695 22.1045695,23 21,23 L10.8289758,23.0009007 C10.9397302,22.6878673 11,22.350972 11,22 L11,21 C11,19.8954305 11.8954305,19 13,19 L21,19 Z M14,10 L14,12 L8,12 L8,14 L14,14 L14,16 L17,13 L14,10 Z M10,5 L7,8 L10,11 L10,9 L16,9 L16,7 L10,7 L10,5 Z M1.50102216,1.06327212 C2.36311707,1.28564881 3,2.06844842 3,3 L3,4.99999996 L2,5 C0.8954305,5 0,4.1045695 0,3 C0,2.09626132 0.599420418,1.33252478 1.42237357,1.08467806 Z"/>
		</symbol>
		<symbol id="star" viewbox="0 0 24 24">
			<title>star</title>
			<polygon points="12 18.5 5.53436222 21.8991869 6.76918916 14.6995935 1.53837832 9.60081306 8.76718111 8.55040653 12 2 15.2328189 8.55040653 22.4616217 9.60081306 17.2308108 14.6995935 18.4656378 21.8991869"></polygon>
		</symbol>
		<symbol id="star-plus" viewbox="0 0 24 24">
			<title>star-plus</title>
			<path fill-rule="evenodd" d="M10.5,6 L13.2919799,11.6571693 L19.5350369,12.5643386 L15.0175185,16.9678307 L16.0839599,23.1856614 L10.5,20.25 L4.9160401,23.1856614 L5.98248155,16.9678307 L1.4649631,12.5643386 L7.70802005,11.6571693 L10.5,6 Z M19,2 L19,5 L22,5 L22,7 L19,7 L19,10 L17,10 L17,7 L14,7 L14,5 L17,5 L17,2 L19,2 Z" />
		</symbol>
		<symbol id="triangle" viewbox="0 0 24 24">
			<title>triangle</title>
			<polygon points="12 5 22 20 2 20"></polygon>
		</symbol>
		<symbol id="triangle-plus" viewbox="0 0 24 24">
			<title>triangle-plus</title>
			<path fill-rule="evenodd" d="M11,8.5 L20,22 L2,22 L11,8.5 Z M19,2 L19,5 L22,5 L22,7 L19,7 L19,10 L17,10 L17,7 L14,7 L14,5 L17,5 L17,2 L19,2 Z" />
		</symbol>
		<symbol id="arrows-swap-h" viewbox="0 0 24 24">
			<title>arrows-swap-h</title>
			<path fill-rule="evenodd" d="M18,10 L23,15 L18,20 L18,17 L8,17 L8,13 L18,13 L18,10 Z M6,4 L6,7 L16,7 L16,11 L6,11 L6,14 L1,9 L6,4 Z" />
		</symbol>
		<symbol id="clock-reset" viewbox="0 0 24 24">
			<title>clock-reset</title>
			<path d="M12,3 C16.9705627,3 21,7.02943725 21,12 C21,16.9705627 16.9705627,21 12,21 L12,24 L8,20 L12,16 L12,19 C15.8659932,19 19,15.8659932 19,12 C19,8.13400675 15.8659932,5 12,5 C8.13400675,5 5,8.13400675 5,12 L5,13 L3,13 L3,12 C3,7.02943725 7.02943725,3 12,3 Z M13,7 L13,11.585 L15.2071068,13.7928932 L13.7928932,15.2071068 L11.2928932,12.7071068 L11,12.4142136 L11,7 L13,7 Z" />
		</symbol>
		<symbol id="gauge" viewbox="0 0 24 24">
			<title>gauge</title>
			<path d="M16,16 C16,15.3011741 15.8207935,14.6442041 15.5058291,14.0725386 L19.0109661,12.1438215 C18.3020576,10.8576876 17.2495377,9.78753046 15.9771412,9.05708475 L13.5895879,14.7860698 C13.8470456,15.122688 14,15.5434818 14,16 C14,17.1045695 13.1045695,18 12,18 C10.8954305,18 10,17.1045695 10,16 C10,14.9827782 10.7594115,14.1429264 11.7422199,14.0164591 L14.1302013,8.28672703 C13.4519681,8.09983388 12.7376428,8 12,8 C7.581722,8 4,11.581722 4,16 L2,16 C2,10.4771525 6.4771525,6 12,6 C13.0103037,6 13.9856143,6.14982342 14.9049257,6.42846416 L16.0769231,3.61538462 L17.9230769,4.38461538 L16.7509229,7.19845117 C19.8767516,8.8892775 22,12.1966831 22,16 L16,16 Z" />
		</symbol>
		<symbol id="trash" viewbox="0 0 24 24">
			<title>trash</title>
			<path fill-rule="evenodd" d="M5,6 L19,6 L17,21 L7,21 L5,6 Z M3,3 L10,3 L10,2 L14,2 L14,3 L21,3 L21,5 L3,5 L3,3 Z" />
		</symbol>
		<symbol id="compass-marker" viewbox="0 0 24 24">
			<title>compass-marker</title>
			<path fill-rule="evenodd" d="M12,2 L14.15,8.45 L16.9497475,7.05025253 L15.549,9.85 L22,12 L15.549,14.15 L16.9497475,16.9497475 L14.15,15.549 L12,22 L9.85,15.549 L7.05025253,16.9497475 L8.45,14.15 L2,12 L8.45,9.85 L7.05025253,7.05025253 L9.85,8.45 L12,2 Z M12,12 L12,19 L13.5,14.5 L12,12 Z M12,5 L12,12 L13.5,9.5 L12,5 Z M14.5,10.5 L12,12 L20,12 L14.5,10.5 Z M9.5,10.5 L4,12 L12,12 L9.5,10.5 Z"/>
		</symbol>
		<symbol id="star-triangle" viewbox="0 0 24 24">
			<title>star-triangle</title>
			<path fill-rule="evenodd" d="M8,13 L14,22 L2,22 L8,13 Z M16,2 L18.0572484,6.16844052 L22.6573956,6.83688104 L19.3286978,10.0815595 L20.1144968,14.663119 L16,12.5 L11.8855032,14.663119 L12.6713022,10.0815595 L9.34260439,6.83688104 L13.9427516,6.16844052 L16,2 Z"/>
		</symbol>
		<symbol id="check" viewbox="0 0 24 24">
			<title>check</title>
			<polygon points="5.414 4.586 14.999 14.171 18.586 10.586 21.414 13.414 15 19.828 13.586 18.414 2.586 7.414" transform="matrix(-1 0 0 1 24 0)"/>
		</symbol>
		<symbol id="arrow-right" viewbox="0 0 24 24">
			<title>arrow-right</title>
			<path d="M13.4142136,2.58578644 L22.8284271,12 L13.4142136,21.4142136 L10.5857864,18.5857864 L15.17,13.9997864 L2,14 L2,10 L15.17,9.99978644 L10.5857864,5.41421356 L13.4142136,2.58578644 Z"/>
		</symbol>
	</defs>
</svg>