<svg xmlns="http://www.w3.org/2000/svg" width="24" height="24" viewBox="0 0 24 24"><path d="M16,16 C16,15.3011741 15.8207935,14.6442041 15.5058291,14.0725386 L19.0109661,12.1438215 C18.3020576,10.8576876 17.2495377,9.78753046 15.9771412,9.05708475 L13.5895879,14.7860698 C13.8470456,15.122688 14,15.5434818 14,16 C14,17.1045695 13.1045695,18 12,18 C10.8954305,18 10,17.1045695 10,16 C10,14.9827782 10.7594115,14.1429264 11.7422199,14.0164591 L14.1302013,8.28672703 C13.4519681,8.09983388 12.7376428,8 12,8 C7.581722,8 4,11.581722 4,16 L2,16 C2,10.4771525 6.4771525,6 12,6 C13.0103037,6 13.9856143,6.14982342 14.9049257,6.42846416 L16.0769231,3.61538462 L17.9230769,4.38461538 L16.7509229,7.19845117 C19.8767516,8.8892775 22,12.1966831 22,16 L16,16 Z"/></svg>