<?xml version="1.0" encoding="UTF-8"?>
<svg width="24px" height="24px" viewBox="0 0 24 24" version="1.1" xmlns="http://www.w3.org/2000/svg" xmlns:xlink="http://www.w3.org/1999/xlink">
    <title>plus-scroll</title>
    <g id="plus-scroll" stroke="none" stroke-width="1" fill="none" fill-rule="evenodd">
        <path d="M16,1 C17.6568542,1 19,2.34314575 19,4 L19,17 L13,17 C10.8578046,17 9.10892112,18.6839685 9.00489531,20.8003597 L9,21 L9,22 C9,22.5522847 8.55228475,23 8,23 C6.34314575,23 5,21.6568542 5,20 L5,3 C5,2.27101288 4.80499062,1.58757264 4.46429254,0.998999962 L16,1 Z M21,19 C22.1045695,19 23,19.8954305 23,21 C23,22.1045695 22.1045695,23 21,23 L10.8289758,23.0009007 C10.9397302,22.6878673 11,22.350972 11,22 L11,21 C11,19.8954305 11.8954305,19 13,19 L21,19 Z M13,6 L11,6 L11,8.99999996 L8,9 L8,11 L11,11 L11,14 L13,14 L13,11 L16,11 L16,9 L13,8.99999996 L13,6 Z M1.50102216,1.06327212 C2.36311707,1.28564881 3,2.06844842 3,3 L3,4.99999996 L2,5 C0.8954305,5 0,4.1045695 0,3 C0,2.09626132 0.599420418,1.33252478 1.42237357,1.08467806 Z" id="Combined-Shape"></path>
    </g>
</svg>