<svg xmlns="http://www.w3.org/2000/svg" width="32" height="32" viewBox="0 0 32 32"><g fill="none" fill-rule="evenodd"><path fill="#A5A5A5" d="M23,19 L24.5,20.5 L16,29 L7.5,20.5 L9,19 L16,26 L23,19 Z"/><path fill="#A5A5A5" d="M16,3 L29,16 L25.5,19.5 L16,10 L6.5,19.5 L3,16 L16,3 Z"/><polygon fill="#25DFFF" points="10 18 16 12 22 18 16 24"/><polygon fill="#A5F0FE" points="12 18 16 14 20 18 16 22"/><path fill="#25DFFF" fill-rule="nonzero" d="M16,0.585786438 L31.4142136,16 L16,31.4142136 L0.585786438,16 L16,0.585786438 Z M16,2 L2,16 L16,30 L30,16 L16,2 Z"/></g></svg>